# xmcd
#
# Track frame offsets: 
#        150
#        10446
#        27489
#        33952
#        54242
#        71897
#        90081
#        109579
#        127437
#        143287
#        154888
#        175811
#        189957
#        211990
#        221725
#
# Disc length: 3203 seconds
#
# Revision: 0
# Processed by: cddbd v1.5.2PL0 Copyright (c) Steve Scherf et al.
# Submitted via: ExactAudioCopy v1.0b6
#
DISCID=cd0c810f
DTITLE=Pino Daniele - Viento
DYEAR=2011
DGENRE=Blues
TTITLE0=Viento
TTITLE1=T'aggia vede' morta
TTITLE2=Sulo pe' parla'
TTITLE3=Come un gelato all'equatore
TTITLE4='O ssaje comme fa 'o core
TTITLE5=Chi tene 'o mare
TTITLE6=Che Dio ti benedica
TTITLE7=Canzone nova
TTITLE8=Bella 'mbriana
TTITLE9=Maggio se ne va
TTITLE10=Ferry Boat
TTITLE11=Occhi grigi
TTITLE12=Amico mio
TTITLE13='Na tazzulella 'e cafe' (live)
TTITLE14=Sotto 'o sole
EXTD=
EXTT0=
EXTT1=
EXTT2=
EXTT3=
EXTT4=
EXTT5=
EXTT6=
EXTT7=
EXTT8=
EXTT9=
EXTT10=
EXTT11=
EXTT12=
EXTT13=
EXTT14=
PLAYORDER=
